<?xml version="1.0" encoding="UTF-8" standalone="no"?>
<!-- Created with Inkscape (http://www.inkscape.org/) -->

<svg
   xmlns:dc="http://purl.org/dc/elements/1.1/"
   xmlns:cc="http://creativecommons.org/ns#"
   xmlns:rdf="http://www.w3.org/1999/02/22-rdf-syntax-ns#"
   xmlns:svg="http://www.w3.org/2000/svg"
   xmlns="http://www.w3.org/2000/svg"
   xmlns:xlink="http://www.w3.org/1999/xlink"
   xmlns:sodipodi="http://sodipodi.sourceforge.net/DTD/sodipodi-0.dtd"
   xmlns:inkscape="http://www.inkscape.org/namespaces/inkscape"
   width="192"
   height="192"
   id="svg2"
   version="1.1"
   inkscape:version="0.92.2 5c3e80d, 2017-08-06"
   sodipodi:docname="logo.svg">
  <defs
     id="defs4">
    <linearGradient
       id="linearGradient3804">
      <stop
         style="stop-color:#ffffff;stop-opacity:1;"
         offset="0"
         id="stop3806" />
      <stop
         id="stop3814"
         offset="0.33333333"
         style="stop-color:#ffffff;stop-opacity:0.5;" />
      <stop
         style="stop-color:#ffffff;stop-opacity:0;"
         offset="1"
         id="stop3808" />
    </linearGradient>
    <filter
       id="filter2996"
       style="color-interpolation-filters:sRGB;"
       inkscape:label="Drop Shadow">
      <feFlood
         id="feFlood2998"
         flood-opacity="0.2"
         flood-color="rgb(0,0,0)"
         result="flood" />
      <feComposite
         id="feComposite3000"
         in2="SourceGraphic"
         in="flood"
         operator="in"
         result="composite1" />
      <feGaussianBlur
         id="feGaussianBlur3002"
         in="composite"
         stdDeviation="6"
         result="blur" />
      <feOffset
         id="feOffset3004"
         dx="0"
         dy="6"
         result="offset" />
      <feComposite
         id="feComposite3006"
         in2="offset"
         in="SourceGraphic"
         operator="over"
         result="fbSourceGraphic" />
      <feColorMatrix
         result="fbSourceGraphicAlpha"
         in="fbSourceGraphic"
         values="0 0 0 -1 0 0 0 0 -1 0 0 0 0 -1 0 0 0 0 1 0"
         id="feColorMatrix3008" />
      <feFlood
         id="feFlood3010"
         flood-opacity="0.2"
         flood-color="rgb(0,0,0)"
         result="flood"
         in="fbSourceGraphic" />
      <feComposite
         id="feComposite3012"
         in2="fbSourceGraphic"
         in="flood"
         operator="in"
         result="composite1" />
      <feGaussianBlur
         id="feGaussianBlur3014"
         in="composite"
         stdDeviation="6"
         result="blur" />
      <feOffset
         id="feOffset3016"
         dx="0"
         dy="6"
         result="offset" />
      <feComposite
         id="feComposite3018"
         in2="offset"
         in="fbSourceGraphic"
         operator="over"
         result="composite2" />
    </filter>
    <filter
       id="filter3790"
       style="color-interpolation-filters:sRGB;"
       inkscape:label="Drop Shadow">
      <feFlood
         id="feFlood3792"
         flood-opacity="0"
         flood-color="rgb(0,0,0)"
         result="flood" />
      <feComposite
         id="feComposite3794"
         in2="SourceGraphic"
         in="flood"
         operator="in"
         result="composite1" />
      <feOffset
         id="feOffset3796"
         dx="0"
         dy="0"
         result="offset" />
      <feComposite
         id="feComposite3798"
         in2="offset"
         in="SourceGraphic"
         operator="over"
         result="composite2" />
    </filter>
    <linearGradient
       inkscape:collect="always"
       xlink:href="#linearGradient3804"
       id="linearGradient3810"
       x1="0.35359117"
       y1="861.24615"
       x2="192.35359"
       y2="1051.4781"
       gradientUnits="userSpaceOnUse" />
  </defs>
  <sodipodi:namedview
     id="base"
     pagecolor="#ffffff"
     bordercolor="#666666"
     borderopacity="1.0"
     inkscape:pageopacity="0"
     inkscape:pageshadow="2"
     inkscape:zoom="4"
     inkscape:cx="46.838056"
     inkscape:cy="92.316464"
     inkscape:document-units="px"
     inkscape:current-layer="layer3"
     showgrid="false"
     inkscape:showpageshadow="false"
     inkscape:window-width="1918"
     inkscape:window-height="2136"
     inkscape:window-x="3840"
     inkscape:window-y="22"
     inkscape:window-maximized="0"
     showguides="true"
     inkscape:guide-bbox="true"
     inkscape:snap-global="true"
     inkscape:snap-object-midpoints="true"
     inkscape:snap-nodes="true"
     inkscape:object-nodes="false" />
  <metadata
     id="metadata7">
    <rdf:RDF>
      <cc:Work
         rdf:about="">
        <dc:format>image/svg+xml</dc:format>
        <dc:type
           rdf:resource="http://purl.org/dc/dcmitype/StillImage" />
        <dc:title />
      </cc:Work>
    </rdf:RDF>
  </metadata>
  <g
     inkscape:groupmode="layer"
     id="layer4"
     inkscape:label="Background" />
  <g
     inkscape:label="Material Background"
     inkscape:groupmode="layer"
     id="layer1"
     transform="translate(0,-860.36218)"
     style="display:none">
    <g
       id="g862">
      <rect
         style="fill:#f44336;fill-opacity:1;stroke:none"
         id="rect2991"
         width="176"
         height="128"
         x="8"
         y="892.36218"
         rx="12.069007" />
      <rect
         transform="rotate(-90)"
         rx="12.069007"
         y="32"
         x="-1044.3622"
         height="128"
         width="176"
         id="rect2993"
         style="fill:#ffeb3b;fill-opacity:1;stroke:none" />
      <circle
         transform="matrix(2.7807263,0,0,2.7807263,-153.25141,672.69737)"
         id="path2995"
         style="fill:#4caf50;fill-opacity:1;stroke:none"
         cx="89.635361"
         cy="102.01105"
         r="31.646408" />
      <rect
         rx="12.081006"
         y="880.36218"
         x="20"
         height="152"
         width="152"
         id="rect2987"
         style="fill:#2196f3;fill-opacity:1;stroke:none" />
    </g>
  </g>
  <g
     inkscape:groupmode="layer"
     id="layer3"
     inkscape:label="Material Foreground"
     style="display:inline">
    <g
       id="g849">
      <path
         inkscape:connector-curvature="0"
         id="path3922-5"
         d="m 94.969784,36.055368 c -0.738785,0.06506 -1.548567,0.495901 -3.05884,1.341367 -14.068646,7.875783 -32.479471,20.59562 -44.454441,28.815693 -2.080822,2.302492 -2.231781,2.362514 -2.501252,5.623216 -0.395253,14.684796 -1.605138,32.218806 -1.814789,46.897826 0.358319,4.55566 0.966554,9.11042 5.638996,11.55153 14.852348,8.76777 29.191519,16.75218 43.128856,24.6601 2.852557,1.3658 7.709328,1.59098 10.736196,-0.89161 13.36678,-7.75982 26.77305,-15.45492 40.11472,-23.25562 3.99267,-2.62088 6.57145,-6.33699 6.02825,-11.13071 -0.11352,-17.15924 -0.68192,-33.17199 -1.031,-49.086088 -0.73979,-4.237564 -4.36332,-6.985201 -7.97193,-8.884576 C 125.23331,53.784484 108.24619,42.330056 97.613064,36.90753 96.378126,36.288993 95.70857,35.990314 94.969784,36.055368 Z m -0.06576,1.891064 c 0.211291,-0.0052 0.391718,0.06334 0.452383,0.157807 l 29.341733,35.727673 c 0.53222,0.69627 0.53006,0.656115 -0.29196,0.723285 l -59.814392,0.157808 c -0.66591,-0.0064 -0.631045,-0.145915 -0.134138,-0.767998 L 94.317512,38.217335 c 0.132965,-0.186417 0.37538,-0.263766 0.586517,-0.270903 z m 5.733696,3.182455 42.38713,25.48069 c 0.62051,0.419772 0.75108,0.506103 -0.17884,0.925804 l -14.19744,6.49905 c -0.6348,0.30422 -0.72292,0.279594 -1.0836,-0.157807 z m -12.572031,1.194079 c 0.01212,0.02673 -0.178182,0.234186 -0.541806,0.654902 L 61.727584,73.787199 c -0.412514,0.515111 -0.60324,0.504975 -1.241422,0.294575 L 48.250803,68.529571 87.34504,42.79902 c 0.490751,-0.337081 0.708131,-0.502784 0.720654,-0.476054 z M 144.9212,69.071378 c 0.20283,-0.01452 0.21229,0.172965 0.24985,0.720655 l 1.21776,50.085547 -16.95119,-42.99735 c -0.19169,-0.396231 -0.22313,-0.714455 0.29458,-0.949476 l 14.5788,-6.656856 c 0.29625,-0.124509 0.48873,-0.193767 0.6102,-0.20252 z m -97.775049,1.330846 12.572016,5.710009 c 0.432786,0.203536 0.438244,0.234765 0.226192,0.857423 L 45.589113,119.13062 Z m 78.049079,6.320199 c 0.78679,0.0138 0.60044,0.303836 0.33928,0.720655 L 95.695699,129.92204 c -0.547281,0.81909 -0.490748,0.84411 -1.015229,0.0446 L 63.621277,77.579845 c -0.431708,-0.711904 -0.466467,-0.712543 0.40767,-0.699615 z m 2.43813,1.375557 c 0.0566,-0.02369 0.1072,0.14868 0.2262,0.586519 l 17.98745,45.706381 c 0.25937,0.7531 0.28293,1.02402 -0.47342,1.1967 l -47.692142,6.56745 c -0.789425,0.12604 -0.711768,-0.0732 -0.383998,-0.63124 l 30.04134,-52.860333 c 0.17543,-0.327982 0.23828,-0.541602 0.29457,-0.565477 z m -65.953117,0.497094 c 0.05822,-0.04204 0.123054,0.0782 0.318245,0.473423 l 31.011851,52.318523 c 0.209824,0.41774 0.319899,0.85283 -0.541805,0.72328 l -45.569615,-6.59109 c -0.965872,-0.17891 -0.937998,-0.53585 -0.678573,-1.48866 L 61.456681,79.181594 c 0.114639,-0.322196 0.165077,-0.544653 0.22356,-0.58652 z m -11.848731,49.541106 43.696963,6.29916 c 0.59606,0.0951 0.673812,0.32815 0.699614,0.90214 l 0.946847,17.78493 c 0.08225,0.6067 -0.05231,0.73487 -0.631231,0.38401 z m 92.449028,0.0474 -44.215093,25.5938 c -0.665811,0.33987 -0.649735,0.14419 -0.699615,-0.40504 l -0.970517,-18.10318 c 0.0058,-0.43025 -0.101805,-0.72452 0.497095,-0.81272 z"
         style="fill:#03a9f4;fill-opacity:1;stroke:none;stroke-width:0.34819329" />
      <text
         id="text867"
         y="129.58284"
         x="70.194328"
         style="font-style:normal;font-variant:normal;font-weight:normal;font-stretch:normal;font-size:8.47245502px;line-height:125%;font-family:'Noto Serif';-inkscape-font-specification:'Noto Serif';letter-spacing:0px;word-spacing:0px;fill:#000000;fill-opacity:1;stroke:#ffffff;stroke-width:2.56175041;stroke-linecap:round;stroke-linejoin:round;stroke-miterlimit:4;stroke-dasharray:none;stroke-opacity:1;paint-order:stroke markers fill"
         xml:space="preserve"><tspan
           style="font-style:normal;font-variant:normal;font-weight:normal;font-stretch:normal;font-size:81.33557129px;font-family:'Noto Serif';-inkscape-font-specification:'Noto Serif';fill:#212121;fill-opacity:1;stroke:#ffffff;stroke-width:2.56175041;stroke-linecap:round;stroke-linejoin:round;stroke-miterlimit:4;stroke-dasharray:none;stroke-opacity:1;paint-order:stroke markers fill"
           y="129.58284"
           x="70.194328"
           id="tspan865"
           sodipodi:role="line">T</tspan></text>
    </g>
  </g>
  <g
     inkscape:groupmode="layer"
     id="layer2"
     inkscape:label="Finish"
     style="display:inline"
     sodipodi:insensitive="true">
    <rect
       transform="translate(0,-860.36218)"
       style="opacity:0.1;fill:url(#linearGradient3810);fill-opacity:1;stroke:none"
       id="rect3802"
       width="192"
       height="192"
       x="0"
       y="860.36218" />
  </g>
</svg>
