<?xml version="1.0" encoding="UTF-8" standalone="no"?>
<!-- Created with Inkscape (http://www.inkscape.org/) -->

<svg
   xmlns:dc="http://purl.org/dc/elements/1.1/"
   xmlns:cc="http://creativecommons.org/ns#"
   xmlns:rdf="http://www.w3.org/1999/02/22-rdf-syntax-ns#"
   xmlns:svg="http://www.w3.org/2000/svg"
   xmlns="http://www.w3.org/2000/svg"
   xmlns:xlink="http://www.w3.org/1999/xlink"
   xmlns:sodipodi="http://sodipodi.sourceforge.net/DTD/sodipodi-0.dtd"
   xmlns:inkscape="http://www.inkscape.org/namespaces/inkscape"
   width="192"
   height="192"
   id="svg2"
   version="1.1"
   inkscape:version="0.92.2 5c3e80d, 2017-08-06"
   sodipodi:docname="logo.svg">
  <defs
     id="defs4">
    <linearGradient
       id="linearGradient3804">
      <stop
         style="stop-color:#ffffff;stop-opacity:1;"
         offset="0"
         id="stop3806" />
      <stop
         id="stop3814"
         offset="0.33333333"
         style="stop-color:#ffffff;stop-opacity:0.5;" />
      <stop
         style="stop-color:#ffffff;stop-opacity:0;"
         offset="1"
         id="stop3808" />
    </linearGradient>
    <filter
       id="filter2996"
       style="color-interpolation-filters:sRGB;"
       inkscape:label="Drop Shadow">
      <feFlood
         id="feFlood2998"
         flood-opacity="0.2"
         flood-color="rgb(0,0,0)"
         result="flood" />
      <feComposite
         id="feComposite3000"
         in2="SourceGraphic"
         in="flood"
         operator="in"
         result="composite1" />
      <feGaussianBlur
         id="feGaussianBlur3002"
         in="composite"
         stdDeviation="6"
         result="blur" />
      <feOffset
         id="feOffset3004"
         dx="0"
         dy="6"
         result="offset" />
      <feComposite
         id="feComposite3006"
         in2="offset"
         in="SourceGraphic"
         operator="over"
         result="fbSourceGraphic" />
      <feColorMatrix
         result="fbSourceGraphicAlpha"
         in="fbSourceGraphic"
         values="0 0 0 -1 0 0 0 0 -1 0 0 0 0 -1 0 0 0 0 1 0"
         id="feColorMatrix3008" />
      <feFlood
         id="feFlood3010"
         flood-opacity="0.2"
         flood-color="rgb(0,0,0)"
         result="flood"
         in="fbSourceGraphic" />
      <feComposite
         id="feComposite3012"
         in2="fbSourceGraphic"
         in="flood"
         operator="in"
         result="composite1" />
      <feGaussianBlur
         id="feGaussianBlur3014"
         in="composite"
         stdDeviation="6"
         result="blur" />
      <feOffset
         id="feOffset3016"
         dx="0"
         dy="6"
         result="offset" />
      <feComposite
         id="feComposite3018"
         in2="offset"
         in="fbSourceGraphic"
         operator="over"
         result="composite2" />
    </filter>
    <filter
       id="filter3790"
       style="color-interpolation-filters:sRGB;"
       inkscape:label="Drop Shadow">
      <feFlood
         id="feFlood3792"
         flood-opacity="0"
         flood-color="rgb(0,0,0)"
         result="flood" />
      <feComposite
         id="feComposite3794"
         in2="SourceGraphic"
         in="flood"
         operator="in"
         result="composite1" />
      <feOffset
         id="feOffset3796"
         dx="0"
         dy="0"
         result="offset" />
      <feComposite
         id="feComposite3798"
         in2="offset"
         in="SourceGraphic"
         operator="over"
         result="composite2" />
    </filter>
    <linearGradient
       inkscape:collect="always"
       xlink:href="#linearGradient3804"
       id="linearGradient3810"
       x1="0.35359117"
       y1="861.24615"
       x2="192.35359"
       y2="1051.4781"
       gradientUnits="userSpaceOnUse" />
  </defs>
  <sodipodi:namedview
     id="base"
     pagecolor="#ffffff"
     bordercolor="#666666"
     borderopacity="1.0"
     inkscape:pageopacity="0"
     inkscape:pageshadow="2"
     inkscape:zoom="2.8284271"
     inkscape:cx="102.69676"
     inkscape:cy="96.679653"
     inkscape:document-units="px"
     inkscape:current-layer="layer3"
     showgrid="false"
     inkscape:showpageshadow="false"
     inkscape:window-width="1920"
     inkscape:window-height="1058"
     inkscape:window-x="0"
     inkscape:window-y="22"
     inkscape:window-maximized="0"
     showguides="true"
     inkscape:guide-bbox="true"
     inkscape:snap-global="true"
     inkscape:snap-object-midpoints="true"
     inkscape:snap-nodes="true"
     inkscape:object-nodes="false" />
  <metadata
     id="metadata7">
    <rdf:RDF>
      <cc:Work
         rdf:about="">
        <dc:format>image/svg+xml</dc:format>
        <dc:type
           rdf:resource="http://purl.org/dc/dcmitype/StillImage" />
        <dc:title></dc:title>
      </cc:Work>
    </rdf:RDF>
  </metadata>
  <g
     inkscape:groupmode="layer"
     id="layer4"
     inkscape:label="Background" />
  <g
     inkscape:label="Material Background"
     inkscape:groupmode="layer"
     id="layer1"
     transform="translate(0,-860.36218)"
     style="display:none">
    <g
       id="g862">
      <rect
         style="fill:#f44336;fill-opacity:1;stroke:none"
         id="rect2991"
         width="176"
         height="128"
         x="8"
         y="892.36218"
         rx="12.069007" />
      <rect
         transform="rotate(-90)"
         rx="12.069007"
         y="32"
         x="-1044.3622"
         height="128"
         width="176"
         id="rect2993"
         style="fill:#ffeb3b;fill-opacity:1;stroke:none" />
      <circle
         transform="matrix(2.7807263,0,0,2.7807263,-153.25141,672.69737)"
         id="path2995"
         style="fill:#4caf50;fill-opacity:1;stroke:none"
         cx="89.635361"
         cy="102.01105"
         r="31.646408" />
      <rect
         rx="12.081006"
         y="880.36218"
         x="20"
         height="152"
         width="152"
         id="rect2987"
         style="fill:#2196f3;fill-opacity:1;stroke:none" />
    </g>
  </g>
  <g
     inkscape:groupmode="layer"
     id="layer3"
     inkscape:label="Material Foreground"
     style="display:inline">
    <path
       style="fill:#03a9f4;fill-opacity:1;stroke:none;stroke-width:0.51371366"
       d="m 94.480053,7.5595318 c -1.089982,0.095983 -2.284709,0.731636 -4.51292,1.9790099 C 69.210685,21.15823 42.047919,39.924688 24.380418,52.052331 c -3.069982,3.397025 -3.292703,3.485581 -3.690272,8.29632 -0.583144,21.665497 -2.368171,47.534629 -2.677483,69.191619 0.528652,6.72127 1.426023,13.44122 8.319602,17.04277 21.912697,12.93569 43.068269,24.71565 63.630988,36.38275 4.208575,2.01506 11.374107,2.34728 15.839847,-1.31546 19.72095,-11.44859 39.50014,-22.80171 59.18403,-34.31062 5.89066,-3.86677 9.69533,-9.34941 8.8939,-16.4219 -0.16749,-25.31622 -1.00608,-48.940944 -1.52111,-72.420116 -1.09147,-6.251972 -6.43751,-10.305752 -11.76154,-13.10803 C 139.12992,33.716524 114.06765,16.817013 98.379866,8.8167856 96.557876,7.9042143 95.570034,7.4635522 94.480053,7.5595318 Z m -0.09701,2.7900162 c 0.311732,-0.0077 0.577928,0.09345 0.667432,0.232825 l 43.289875,52.71151 c 0.78523,1.027256 0.78204,0.968013 -0.43074,1.067113 L 49.661301,64.593821 C 48.678838,64.58433 48.730276,64.378543 49.463398,63.46074 L 93.517709,10.74923 c 0.196174,-0.275034 0.553825,-0.389152 0.86533,-0.399682 z m 8.459297,4.695297 62.5367,37.593427 c 0.91547,0.619318 1.10812,0.746689 -0.26386,1.365904 l -20.94646,9.588497 c -0.93658,0.448838 -1.06658,0.412506 -1.59871,-0.232823 z m -18.548366,1.761707 c 0.01788,0.03944 -0.262884,0.345511 -0.799364,0.966222 L 45.43553,63.227916 c -0.608609,0.759978 -0.890001,0.745024 -1.831554,0.434607 L 25.552302,55.470973 83.230739,17.508908 c 0.724039,-0.497319 1.044755,-0.741793 1.063231,-0.702356 z m 83.882866,39.463785 c 0.29924,-0.02142 0.31319,0.255189 0.36862,1.063234 l 1.79664,73.894679 -25.00925,-63.436972 c -0.28282,-0.584587 -0.32921,-1.054085 0.4346,-1.400828 l 21.50912,-9.821321 c 0.43707,-0.183696 0.72106,-0.285878 0.90027,-0.298792 z m -144.254307,1.96349 18.548366,8.424372 c 0.63852,0.300291 0.646572,0.346365 0.333716,1.265015 L 21.625328,130.1262 Z m 115.151207,9.324628 c 1.16081,0.02036 0.88588,0.44827 0.50057,1.063232 L 95.551044,146.04753 c -0.807441,1.20847 -0.724033,1.24538 -1.497838,0.0659 L 48.229428,68.823469 c -0.63693,-1.050322 -0.688212,-1.051264 0.601463,-1.032191 z m 3.59715,2.029454 c 0.0835,-0.03495 0.15815,0.219357 0.33372,0.865332 l 26.53813,67.433789 c 0.38268,1.1111 0.41744,1.5108 -0.69847,1.76558 l -70.363512,9.68941 c -1.164694,0.18596 -1.05012,-0.10809 -0.56654,-0.93131 L 142.23628,70.422197 c 0.25883,-0.483895 0.35156,-0.799063 0.43461,-0.834288 z m -97.305204,0.733398 c 0.0859,-0.06202 0.181551,0.115372 0.469529,0.698473 l 45.753932,77.18914 c 0.309569,0.61633 0.471969,1.25824 -0.799363,1.06711 l -67.23201,-9.7243 c -1.425017,-0.26396 -1.383894,-0.79058 -1.001146,-2.19632 L 45.035849,71.186639 c 0.169135,-0.475357 0.243549,-0.803563 0.329833,-0.865332 z m -17.481255,73.091423 64.469158,9.2936 c 0.879408,0.14027 0.994122,0.48413 1.032189,1.33098 l 1.396948,26.23934 c 0.121352,0.89511 -0.07717,1.0842 -0.931298,0.56655 z m 136.396459,0.0699 -65.233591,37.76029 c -0.982318,0.50145 -0.9586,0.21274 -1.032191,-0.59758 l -1.431871,-26.70888 c 0.0086,-0.63477 -0.1502,-1.06892 0.733398,-1.19905 z"
       id="path3922-5"
       inkscape:connector-curvature="0" />
    <text
       xml:space="preserve"
       style="font-style:normal;font-variant:normal;font-weight:normal;font-stretch:normal;font-size:12.5px;line-height:125%;font-family:'Noto Serif';-inkscape-font-specification:'Noto Serif';letter-spacing:0px;word-spacing:0px;fill:#000000;fill-opacity:1;stroke:#ffffff;stroke-width:3.77952766;stroke-linecap:round;stroke-linejoin:round;stroke-miterlimit:4;stroke-dasharray:none;stroke-opacity:1;paint-order:stroke markers fill"
       x="57.927109"
       y="145.5471"
       id="text867"><tspan
         sodipodi:role="line"
         id="tspan865"
         x="57.927109"
         y="145.5471"
         style="font-style:normal;font-variant:normal;font-weight:normal;font-stretch:normal;font-size:120px;font-family:'Noto Serif';-inkscape-font-specification:'Noto Serif';fill:#212121;fill-opacity:1;stroke:#ffffff;stroke-width:3.77952766;stroke-linecap:round;stroke-linejoin:round;stroke-miterlimit:4;stroke-dasharray:none;stroke-opacity:1;paint-order:stroke markers fill">T</tspan></text>
  </g>
  <g
     inkscape:groupmode="layer"
     id="layer2"
     inkscape:label="Finish"
     style="display:inline"
     sodipodi:insensitive="true">
    <rect
       transform="translate(0,-860.36218)"
       style="opacity:0.1;fill:url(#linearGradient3810);fill-opacity:1;stroke:none"
       id="rect3802"
       width="192"
       height="192"
       x="0"
       y="860.36218" />
  </g>
</svg>
